<svg width="557" height="363" viewBox="0 0 557 363" fill="none" xmlns="http://www.w3.org/2000/svg">
<g clip-path="url(#clip0_46_10)">
<path d="M149.857 164.755H140.806L137.05 178.49H145.981C151.837 178.49 154.995 174.296 155.078 170.148C155.115 168.558 154.617 167.154 153.697 166.196C152.776 165.248 151.478 164.764 149.848 164.764L149.857 164.755Z" fill="white"/>
<path d="M96.8135 164.057H87.0721L83.8864 175.709H93.5909C97.9276 175.709 101.261 172.724 101.344 168.753C101.371 167.359 100.957 166.168 100.147 165.341C99.3363 164.504 98.1762 164.057 96.8043 164.057H96.8135Z" fill="white"/>
<path d="M92.2006 188.012H80.5256L77.2938 199.831H88.8031C93.0937 199.831 96.3899 196.809 96.4728 192.792C96.5004 191.36 96.0585 190.095 95.2114 189.23C94.438 188.43 93.3975 188.012 92.1914 188.012H92.2006Z" fill="white"/>
<path d="M317.754 207.056L331.372 157.13L303.031 183.381L317.754 207.056Z" fill="white"/>
<path d="M188.022 187.603H201.603L200.673 165.387L188.022 187.603Z" fill="white"/>
<path d="M511.505 156.125H475.062L477.999 145.171C478.423 143.572 477.235 142 475.596 142H59.1738C57.9124 142 56.8075 142.856 56.4761 144.083L48.9168 172.194C48.7879 172.687 48.88 173.198 49.193 173.608C49.5061 174.017 49.9665 174.249 50.4729 174.249H56.338L44.0737 219.433C43.908 220.047 44.0277 220.698 44.4144 221.2C44.8011 221.712 45.3812 222 46.0165 222H456.086C457.402 222 458.562 221.107 458.912 219.824L461.785 210.162H498.044C499.36 210.162 500.52 209.27 500.87 207.986L513.917 159.296C514.35 157.697 513.153 156.116 511.514 156.116L511.505 156.125ZM105.68 206.87C101.362 210.488 95.4325 212.487 88.9781 212.487H57.4981L70.5173 164.727H62.8936L62.9212 164.625L66.5029 151.569H101.694C107.209 151.569 111.61 153.103 114.427 156.014C116.729 158.385 117.899 161.649 117.816 165.452C117.733 169.302 116.333 173.087 113.866 176.118C111.463 179.075 108.249 181.047 104.796 181.698C109.842 183.334 112.549 187.389 112.429 193.136C112.319 198.418 109.916 203.3 105.671 206.861L105.68 206.87ZM202.68 212.487V212.413L202.128 200.352H180.757L173.622 212.487H146.359H146.294V212.422L141.893 191.48H133.385L127.649 212.478H110.892L110.919 212.375L127.502 151.578H152.039C159.801 151.578 165.74 153.754 169.211 157.874C171.964 161.138 173.06 165.573 172.296 170.353C171.605 174.696 169.653 178.601 166.513 181.94C164.009 184.608 160.796 186.803 157.481 188.123L161.431 204.239L193.16 151.587H215.257V151.662L219.603 212.496H202.671L202.68 212.487ZM245.034 212.487C242.069 212.487 231.904 211.883 225.652 204.118C221.03 198.371 219.769 190.234 221.914 179.931C224.428 167.814 228.986 159.845 235.845 155.558C241.738 151.876 248.367 151.569 254.113 151.569H278.153L274.387 165.396H255.807C246.636 165.396 242.401 169.209 239.629 179.968C237.723 187.38 237.908 192.438 240.2 195.433C241.839 197.571 244.629 198.659 248.487 198.659H265.336L261.571 212.487H245.025H245.034ZM386.634 212.487H369.877L369.905 212.385L382.905 164.727H346.057L343.065 175.802H366.258L366.231 175.904L362.87 188.263H339.677L336.647 199.347H363.772L360.191 212.496H301.181L301.162 212.459L287.71 189.667L281.504 212.496H264.738L264.765 212.394L281.348 151.587H298.124L291.872 174.519L315.968 151.587H419.118L415.536 164.736H399.69L386.644 212.496L386.634 212.487ZM499.388 176.723H459.759L456.831 187.454H496.469L492.888 200.594H453.241L449.981 212.543H409.054L412.636 199.394H452.384L455.312 188.663H415.536L419.118 175.514H458.912L461.84 164.783H422.193L425.766 151.634H466.61L463.35 163.574H502.97L499.388 176.723Z" fill="white"/>
</g>
<defs>
<clipPath id="clip0_46_10">
<rect width="470" height="80" fill="white" transform="translate(44 142)"/>
</clipPath>
</defs>
</svg>
