<svg width="557" height="363" viewBox="0 0 557 363" fill="none" xmlns="http://www.w3.org/2000/svg">
<path d="M115.655 156.95C115.655 152.258 119.451 148.455 124.133 148.455C128.816 148.455 132.612 152.258 132.612 156.95V207.918C132.612 212.61 128.816 216.413 124.133 216.413C119.451 216.413 115.655 212.61 115.655 207.918V156.95Z" fill="white"/>
<path d="M148.265 166.751C148.265 171.082 144.761 174.593 140.439 174.593C136.116 174.593 132.612 171.082 132.612 166.751V164.929C127.934 167.64 124.786 172.709 124.786 178.513V186.355C124.786 192.159 127.934 197.228 132.612 199.939V198.117C132.612 193.786 136.116 190.275 140.439 190.275C144.761 190.275 148.265 193.786 148.265 198.117V199.939C152.944 197.228 156.092 192.159 156.092 186.355V178.513C156.092 172.709 152.944 167.64 148.265 164.929V166.751Z" fill="white"/>
<path d="M148.265 146.495C148.265 141.803 152.061 138 156.744 138C161.427 138 165.223 141.803 165.223 146.495V217.066C165.223 221.758 161.427 225.561 156.744 225.561C152.061 225.561 148.265 221.758 148.265 217.066V146.495Z" fill="white"/>
<path d="M92.1752 172.632C92.1752 167.941 95.9712 164.138 100.654 164.138C105.337 164.138 109.133 167.941 109.133 172.632V190.929C109.133 195.62 105.337 199.424 100.654 199.424C95.9712 199.424 92.1752 195.62 92.1752 190.929V172.632Z" fill="white"/>
<path d="M85.6531 182.434C85.6531 186.765 82.149 190.275 77.8265 190.275C73.5041 190.275 70 186.765 70 182.434C70 178.103 73.5041 174.593 77.8265 174.593C82.149 174.593 85.6531 178.103 85.6531 182.434Z" fill="white"/>
<path d="M468.768 203.234C468.002 203.234 467.346 202.961 466.8 202.414C466.253 201.868 465.98 201.194 465.98 200.392V187.657L451.387 164.974C450.913 164.209 450.731 163.498 450.84 162.842C450.949 162.15 451.259 161.603 451.769 161.203C452.316 160.765 452.935 160.547 453.627 160.547C454.247 160.547 454.739 160.692 455.103 160.984C455.468 161.239 455.814 161.622 456.142 162.132L470.025 184.159H467.838L481.94 161.913C482.232 161.476 482.578 161.148 482.978 160.929C483.379 160.674 483.871 160.547 484.454 160.547C485.11 160.547 485.657 160.783 486.094 161.257C486.531 161.694 486.786 162.259 486.859 162.952C486.932 163.607 486.75 164.282 486.313 164.974L471.61 187.657V200.392C471.61 201.194 471.336 201.868 470.79 202.414C470.243 202.961 469.569 203.234 468.768 203.234Z" fill="white"/>
<path d="M413.395 203.234C412.594 203.234 411.919 202.961 411.373 202.414C410.863 201.868 410.608 201.194 410.608 200.392V163.389C410.608 162.551 410.863 161.877 411.373 161.366C411.919 160.82 412.594 160.547 413.395 160.547C414.27 160.547 414.998 160.893 415.581 161.585L439.412 193.286V163.389C439.412 162.551 439.685 161.877 440.232 161.366C440.779 160.82 441.453 160.547 442.254 160.547C443.092 160.547 443.766 160.82 444.277 161.366C444.787 161.877 445.042 162.551 445.042 163.389V200.392C445.042 201.194 444.787 201.868 444.277 202.414C443.766 202.961 443.092 203.234 442.254 203.234C441.89 203.234 441.489 203.161 441.052 203.015C440.651 202.833 440.323 202.578 440.068 202.25L416.237 170.549V200.392C416.237 201.194 415.964 201.868 415.418 202.414C414.907 202.961 414.233 203.234 413.395 203.234Z" fill="white"/>
<path d="M380.005 203.781C376.799 203.781 373.865 203.252 371.205 202.196C368.545 201.102 366.25 199.59 364.319 197.659C362.424 195.691 360.948 193.377 359.891 190.717C358.835 188.021 358.306 185.07 358.306 181.863C358.306 178.656 358.835 175.723 359.891 173.063C360.948 170.403 362.424 168.108 364.319 166.176C366.25 164.209 368.545 162.696 371.205 161.64C373.865 160.547 376.799 160 380.005 160C383.212 160 386.127 160.547 388.75 161.64C391.41 162.696 393.706 164.209 395.637 166.176C397.569 168.108 399.062 170.403 400.119 173.063C401.176 175.723 401.704 178.656 401.704 181.863C401.704 185.07 401.176 188.021 400.119 190.717C399.062 193.377 397.569 195.691 395.637 197.659C393.706 199.59 391.41 201.102 388.75 202.196C386.127 203.252 383.212 203.781 380.005 203.781ZM380.005 198.643C382.374 198.643 384.542 198.224 386.509 197.386C388.514 196.511 390.244 195.327 391.702 193.833C393.159 192.303 394.271 190.517 395.036 188.477C395.838 186.436 396.239 184.231 396.239 181.863C396.239 179.494 395.838 177.29 395.036 175.249C394.271 173.209 393.159 171.442 391.702 169.948C390.244 168.417 388.514 167.233 386.509 166.395C384.542 165.557 382.374 165.138 380.005 165.138C377.637 165.138 375.45 165.557 373.446 166.395C371.479 167.233 369.766 168.417 368.309 169.948C366.887 171.442 365.776 173.209 364.974 175.249C364.173 177.29 363.772 179.494 363.772 181.863C363.772 184.231 364.173 186.436 364.974 188.477C365.776 190.517 366.887 192.303 368.309 193.833C369.766 195.327 371.479 196.511 373.446 197.386C375.45 198.224 377.637 198.643 380.005 198.643Z" fill="white"/>
<path d="M309.419 203.234C308.618 203.234 307.944 202.961 307.397 202.414C306.851 201.868 306.577 201.194 306.577 200.392V163.389C306.577 162.551 306.851 161.877 307.397 161.366C307.944 160.82 308.618 160.547 309.419 160.547C310.513 160.547 311.351 161.057 311.934 162.077L329.041 196.347H327.292L343.963 162.077C344.546 161.057 345.384 160.547 346.477 160.547C347.279 160.547 347.953 160.82 348.5 161.366C349.046 161.877 349.319 162.551 349.319 163.389V200.392C349.319 201.194 349.028 201.868 348.445 202.414C347.898 202.961 347.242 203.234 346.477 203.234C345.676 203.234 345.001 202.961 344.455 202.414C343.908 201.868 343.635 201.194 343.635 200.392V171.259L344.728 170.986L330.408 200.173C329.788 201.121 328.969 201.594 327.948 201.594C326.746 201.594 325.871 201.03 325.325 199.9L311.168 171.533L312.262 171.259V200.392C312.262 201.194 311.988 201.868 311.442 202.414C310.895 202.961 310.221 203.234 309.419 203.234Z" fill="white"/>
<path d="M274.885 203.234C274.083 203.234 273.409 202.961 272.863 202.414C272.316 201.868 272.043 201.194 272.043 200.392V163.389C272.043 162.551 272.316 161.877 272.863 161.366C273.409 160.82 274.083 160.547 274.885 160.547H284.723C287.456 160.547 289.879 161.13 291.993 162.296C294.106 163.425 295.746 164.992 296.912 166.996C298.114 169 298.716 171.332 298.716 173.992C298.716 176.47 298.114 178.675 296.912 180.606C295.746 182.537 294.106 184.049 291.993 185.142C289.879 186.236 287.456 186.782 284.723 186.782H277.727V200.392C277.727 201.194 277.454 201.868 276.907 202.414C276.397 202.961 275.723 203.234 274.885 203.234ZM297.568 203.234C297.058 203.234 296.584 203.125 296.147 202.906C295.746 202.688 295.4 202.341 295.108 201.868L285.27 186.017L290.79 184.432L299.754 198.861C300.41 199.918 300.501 200.92 300.027 201.868C299.554 202.779 298.734 203.234 297.568 203.234ZM277.727 181.535H284.723C286.399 181.535 287.875 181.225 289.15 180.606C290.426 179.95 291.428 179.057 292.157 177.928C292.885 176.762 293.25 175.45 293.25 173.992C293.25 172.389 292.885 170.968 292.157 169.729C291.428 168.49 290.426 167.525 289.15 166.832C287.875 166.14 286.399 165.794 284.723 165.794H277.727V181.535Z" fill="white"/>
<path d="M231.917 203.234C230.897 203.234 230.114 202.797 229.567 201.922C229.02 201.048 228.966 200.119 229.403 199.135L244.762 162.46C245.308 161.184 246.201 160.547 247.44 160.547C248.752 160.547 249.645 161.184 250.118 162.46L265.532 199.244C265.932 200.264 265.86 201.194 265.313 202.032C264.803 202.833 264.019 203.234 262.963 203.234C262.416 203.234 261.888 203.088 261.378 202.797C260.904 202.469 260.558 202.032 260.339 201.485L246.784 167.816H248.315L234.541 201.485C234.286 202.068 233.903 202.505 233.393 202.797C232.919 203.088 232.427 203.234 231.917 203.234ZM234.814 193.833L237 189.132H258.426L260.612 193.833H234.814Z" fill="white"/>
<path d="M188.842 203.234C188.041 203.234 187.366 202.961 186.82 202.414C186.273 201.868 186 201.194 186 200.392V163.389C186 162.551 186.273 161.877 186.82 161.366C187.366 160.82 188.041 160.547 188.842 160.547C189.68 160.547 190.354 160.82 190.865 161.366C191.411 161.877 191.684 162.551 191.684 163.389V179.075H217.045V163.389C217.045 162.551 217.319 161.877 217.865 161.366C218.412 160.82 219.086 160.547 219.888 160.547C220.726 160.547 221.4 160.82 221.91 161.366C222.42 161.877 222.675 162.551 222.675 163.389V200.392C222.675 201.194 222.42 201.868 221.91 202.414C221.4 202.961 220.726 203.234 219.888 203.234C219.086 203.234 218.412 202.961 217.865 202.414C217.319 201.868 217.045 201.194 217.045 200.392V184.104H191.684V200.392C191.684 201.194 191.411 201.868 190.865 202.414C190.354 202.961 189.68 203.234 188.842 203.234Z" fill="white"/>
</svg>
