<?xml version="1.0" encoding="UTF-8"?>
<svg id="Layer_1" data-name="Layer 1" xmlns="http://www.w3.org/2000/svg" viewBox="0 0 229.801 229.81">
  <defs>
    <style>
      .cls-1 {
        stroke-width: 0px;
      }
    </style>
  </defs>
  <g id="BlueRight">
    <path class="cls-1" d="m211.607,52.96c3.71,34.87-58.81,74.76-103.2,78.02,42.02,49.24,111.74,37.36,118.38,9.21,8.43-35.7-2.17-66.82-15.18-87.23h0Z"/>
  </g>
  <g id="RedLower">
    <path class="cls-1" d="m103.967,134.07c-13.97,24.1-6.84,103.79,45.02,90.1,24.14-6.37,50.6-25.44,66.21-53.19-17.02,13.26-74.88,8.02-111.23-36.9v-.01Z"/>
  </g>
  <g id="OrangeLower">
    <path class="cls-1" d="m109.297,229.81c-28.18-26.38-24.08-68.22-11.59-97.31-65.41,8.56-80.82,43.91-58.6,68.24,16.36,17.92,49.9,29.07,70.19,29.07Z"/>
  </g>
  <g id="BlueLeft">
    <path class="cls-1" d="m2.977,88.06c-5.32,19.78-5.02,56.2,13.63,86.75-1.62-33.96,63.92-46.59,82.52-48.35C52.897,57.19,11.657,55.81,2.977,88.06Z"/>
  </g>
  <g id="RedUpper">
    <path class="cls-1" d="m76.507,8.83c-22.45,1.85-50.31,28.38-60.57,47.39,37.34-7.63,76.21,47.09,87.36,66.33,16.97-29.73,28.29-118.27-26.79-113.72Z"/>
  </g>
  <g id="OrangeUpper">
    <path class="cls-1" d="m186.107,24.8C169.157,9.95,141.727,0,114.777,0c8.39,12.41,25.48,73.89-6.78,125.17,64.55-8.78,101.58-79.82,78.12-100.37h-.01Z"/>
  </g>
</svg>