<?xml version="1.0" encoding="UTF-8"?>
<svg xmlns="http://www.w3.org/2000/svg" viewBox="0 0 910.556 192.459">
  <defs>
    <style>
      .cls-1 {
        stroke-width: 0px;
      }
    </style>
  </defs>
  <g id="Logo">
    <g id="BlueRight">
      <path class="cls-1" d="m177.215,44.353c3.107,29.203-49.252,62.609-86.427,65.34,34.943,40.767,93.579,31.288,99.14,7.713,7.06-29.898-1.817-55.96-12.713-73.053h0Z"/>
    </g>
    <g id="RedLower">
      <path class="cls-1" d="m87.07,112.28c-11.699,20.183-5.728,86.921,37.703,75.456,20.217-5.335,42.376-21.305,55.449-44.545-14.254,11.105-62.71,6.717-93.152-30.903v-.008Z"/>
    </g>
    <g id="OrangeLower">
      <path class="cls-1" d="m91.533,192.459c-23.6-22.093-20.166-57.132-9.706-81.494-54.779,7.169-67.684,36.773-49.076,57.149,13.701,15.007,41.79,24.345,58.782,24.345Z"/>
    </g>
    <g id="BlueLeft">
      <path class="cls-1" d="m2.493,73.748c-4.455,16.565-4.204,47.066,11.415,72.651-1.357-28.441,53.531-39.018,69.108-40.492C44.3,47.895,9.762,46.739,2.493,73.748Z"/>
    </g>
    <g id="RedUpper">
      <path class="cls-1" d="m64.073,7.395c-18.801,1.549-42.133,23.767-50.726,39.688,31.271-6.39,63.824,39.437,73.162,55.55,14.212-24.898,23.692-99.048-22.436-95.237Z"/>
    </g>
    <g id="OrangeUpper">
      <path class="cls-1" d="m155.859,20.769C141.664,8.333,118.692,0,96.123,0c7.026,10.393,21.339,61.881-5.678,104.826,54.059-7.353,85.07-66.847,65.423-84.057h-.008Z"/>
    </g>
  </g>
  <g id="Text">
    <g>
      <path class="cls-1" d="m282.666,149.285c-5.25,0-9.622-.622-13.113-1.863-3.493-1.241-6.223-3.199-8.191-5.871s-3.364-5.823-4.184-9.457c-.821-3.632-1.23-8.121-1.23-13.465v-36.492h-12.656l.703-9.984,13.219-1.195,5.906-20.953,11.25-.07v21.023h19.195v11.18h-19.195v36.844c0,5.86.844,10.032,2.531,12.516,1.688,2.485,4.804,3.727,9.352,3.727,2.672,0,5.53-.233,8.578-.703l.492,13.219c-.095,0-.668.105-1.723.316s-2.063.397-3.023.562c-.961.164-2.192.316-3.691.457-1.501.141-2.907.211-4.219.211Z"/>
      <path class="cls-1" d="m308.26,148.23V42.48l18.422-1.195v22.289c0,1.079-.07,4.067-.211,8.965-.141,4.899-.211,7.395-.211,7.488,6.14-7.312,14.39-10.969,24.75-10.969,8.624,0,15.316,2.473,20.074,7.418,4.757,4.946,7.137,12.551,7.137,22.816v48.938h-18.422v-46.898c0-6.328-1.009-10.969-3.023-13.922-2.016-2.953-5.438-4.43-10.266-4.43-4.125,0-7.782,1.044-10.969,3.129-3.188,2.086-5.579,4.771-7.172,8.051-1.125,4.313-1.688,9.938-1.688,16.875v37.195h-18.422Z"/>
      <path class="cls-1" d="m432.08,149.706c-12.422,0-22.09-3.574-29.004-10.723-6.915-7.147-10.371-17.026-10.371-29.637,0-12.28,3.257-22.054,9.773-29.32,6.515-7.265,15.398-10.921,26.648-10.969,10.64,0,18.902,3.329,24.785,9.984,5.882,6.657,8.824,15.493,8.824,26.508,0,.798-.012,2.086-.035,3.867-.024,1.782-.035,3.094-.035,3.938h-51.398c.187,7.22,2.167,12.81,5.941,16.77,3.772,3.962,8.965,5.941,15.574,5.941,8.438,0,16.546-2.202,24.328-6.609l2.602,13.078c-7.734,4.781-16.945,7.172-27.633,7.172Zm-20.461-47.953h33.75c0-6.281-1.431-11.109-4.289-14.484-2.86-3.375-6.82-5.062-11.883-5.062-4.735,0-8.731,1.642-11.988,4.922-3.259,3.282-5.122,8.156-5.59,14.625Z"/>
      <path class="cls-1" d="m515.822,148.23v-77.273h15.469l2.391,11.812c5.062-8.109,12.398-12.164,22.008-12.164,2.015,0,3.656.095,4.922.281l-.281,15.398c-1.875-.281-3.821-.422-5.836-.422-6.797,0-11.872,1.805-15.223,5.414-3.352,3.61-5.027,8.625-5.027,15.047v41.906h-18.422Z"/>
      <path class="cls-1" d="m604.345,149.706c-11.438,0-20.438-3.702-27-11.109-6.563-7.405-9.844-17.156-9.844-29.25,0-12.468,3.28-22.3,9.844-29.496,6.562-7.195,15.82-10.793,27.773-10.793,11.531,0,20.566,3.668,27.105,11.004,6.539,7.337,9.809,17.098,9.809,29.285,0,12.329-3.305,22.138-9.914,29.426-6.609,7.289-15.868,10.934-27.773,10.934Zm.492-13.992c6.233,0,10.921-2.272,14.062-6.82,3.14-4.546,4.711-11.062,4.711-19.547,0-8.578-1.571-15.117-4.711-19.617-3.141-4.5-7.875-6.75-14.203-6.75-6.235,0-10.934,2.262-14.098,6.785-3.164,4.524-4.746,11.074-4.746,19.652,0,8.438,1.593,14.931,4.781,19.477,3.187,4.548,7.921,6.82,14.203,6.82Z"/>
      <path class="cls-1" d="m684.15,149.285c-5.298,0-9.692-.622-13.184-1.863-3.493-1.241-6.247-3.223-8.262-5.941-2.016-2.718-3.422-5.952-4.219-9.703-.798-3.749-1.195-8.413-1.195-13.992V42.48l18.422-1.195v76.148c0,6.938.819,11.637,2.461,14.098,1.64,2.461,4.827,3.691,9.562,3.691,2.343,0,5.319-.257,8.93-.773l.492,13.148c-.047,0-.622.117-1.723.352-1.102.235-2.157.433-3.164.598-1.009.164-2.285.327-3.832.492-1.547.164-2.978.246-4.289.246Z"/>
      <path class="cls-1" d="m733.369,149.285c-5.298,0-9.692-.622-13.184-1.863-3.493-1.241-6.247-3.223-8.262-5.941-2.016-2.718-3.422-5.952-4.219-9.703-.798-3.749-1.195-8.413-1.195-13.992V42.48l18.422-1.195v76.148c0,6.938.819,11.637,2.461,14.098,1.64,2.461,4.827,3.691,9.562,3.691,2.343,0,5.319-.257,8.93-.773l.492,13.148c-.047,0-.622.117-1.723.352-1.102.235-2.157.433-3.164.598-1.009.164-2.285.327-3.832.492-1.547.164-2.978.246-4.289.246Z"/>
      <path class="cls-1" d="m811.275,142.148c-6.142,5.039-14.228,7.559-24.258,7.559s-18.105-2.507-24.223-7.523c-6.117-5.015-9.176-12.375-9.176-22.078v-49.148h18.492v48.445c0,5.766,1.206,9.938,3.621,12.516,2.414,2.579,6.246,3.867,11.496,3.867,5.156,0,8.918-1.276,11.285-3.832,2.366-2.554,3.551-6.737,3.551-12.551v-48.445h18.422v49.148c0,9.657-3.07,17.005-9.211,22.043Z"/>
      <path class="cls-1" d="m837.291,180.363v-109.406h15.82l1.969,10.828c2.531-4.078,5.895-7.23,10.09-9.457,4.194-2.226,8.87-3.34,14.027-3.34,6.328,0,11.894,1.758,16.699,5.273,4.805,3.516,8.448,8.309,10.934,14.379,2.484,6.071,3.727,12.927,3.727,20.566,0,11.953-2.895,21.691-8.684,29.215-5.79,7.523-13.63,11.285-23.52,11.285-4.876,0-9.293-.974-13.254-2.918-3.962-1.944-7.277-4.581-9.949-7.91.375,6.75.562,10.547.562,11.391v29.18l-18.422.914Zm37.125-44.719c5.484,0,9.809-2.296,12.973-6.891,3.164-4.593,4.746-11.155,4.746-19.688,0-8.671-1.594-15.188-4.781-19.547-3.188-4.359-7.618-6.539-13.289-6.539-12.188,0-18.352,8.297-18.492,24.891,0,9.562,1.582,16.583,4.746,21.059,3.164,4.478,7.863,6.715,14.098,6.715Z"/>
    </g>
  </g>
</svg>