<?xml version="1.0" encoding="utf-8"?>
<!-- Generator: Adobe Illustrator 28.0.0, SVG Export Plug-In . SVG Version: 6.00 Build 0)  -->
<svg version="1.1" id="Layer_1" xmlns="http://www.w3.org/2000/svg" xmlns:xlink="http://www.w3.org/1999/xlink" x="0px" y="0px"
	 viewBox="0 0 910.6 192.5" style="enable-background:new 0 0 910.6 192.5;" xml:space="preserve">
<style type="text/css">
	.st0{fill:#3F69DE;}
	.st1{fill:#DF4F4F;}
	.st2{fill:#F59400;}
	.st3{fill:#FFFFFF;}
</style>
<g id="Logo">
	<g id="BlueRight">
		<path class="st0" d="M177.2,44.4c3.1,29.2-49.3,62.6-86.4,65.3c35.2,41.2,93.6,31.3,99.1,7.7C197,87.5,188.1,61.4,177.2,44.4
			L177.2,44.4L177.2,44.4z"/>
	</g>
	<g id="RedLower">
		<path class="st1" d="M87.1,112.3c-11.7,20.2-5.7,86.9,37.7,75.5c20.2-5.3,42.4-21.3,55.4-44.5C166,154.3,117.5,149.9,87.1,112.3
			C87.1,112.3,87.1,112.3,87.1,112.3z"/>
	</g>
	<g id="OrangeLower">
		<path class="st2" d="M91.5,192.5c-23.6-22.1-20.2-57.1-9.7-81.5c-54.8,7.2-67.7,36.8-49.1,57.1C46.5,183.1,74.5,192.5,91.5,192.5z
			"/>
	</g>
	<g id="BlueLeft">
		<path class="st0" d="M2.5,73.7c-4.5,16.6-4.2,47.1,11.4,72.7c-1.4-28.4,53.5-39,69.1-40.5C44.3,47.9,9.8,46.7,2.5,73.7z"/>
	</g>
	<g id="RedUpper">
		<path class="st1" d="M64.1,7.4C45.3,8.9,21.9,31.2,13.3,47.1c31.3-6.4,63.8,39.4,73.2,55.5C100.7,77.7,110.2,3.6,64.1,7.4
			L64.1,7.4z"/>
	</g>
	<g id="OrangeUpper">
		<path class="st2" d="M155.9,20.8C141.7,8.3,118.7,0,96.1,0c7,10.4,21.3,61.9-5.7,104.8C144.5,97.5,175.5,38,155.9,20.8L155.9,20.8
			L155.9,20.8z"/>
	</g>
</g>
<g id="Text">
	<g>
		<path class="st3" d="M282.7,149.3c-5.2,0-9.6-0.6-13.1-1.9c-3.5-1.2-6.2-3.2-8.2-5.9s-3.4-5.8-4.2-9.5c-0.8-3.6-1.2-8.1-1.2-13.5
			V82.1h-12.7l0.7-10l13.2-1.2l5.9-21l11.2-0.1v21h19.2v11.2h-19.2V119c0,5.9,0.8,10,2.5,12.5c1.7,2.5,4.8,3.7,9.4,3.7
			c2.7,0,5.5-0.2,8.6-0.7l0.5,13.2c-0.1,0-0.7,0.1-1.7,0.3s-2.1,0.4-3,0.6c-1,0.2-2.2,0.3-3.7,0.5
			C285.4,149.2,284,149.3,282.7,149.3L282.7,149.3z"/>
		<path class="st3" d="M308.3,148.2V42.5l18.4-1.2v22.3c0,1.1-0.1,4.1-0.2,9c-0.1,4.9-0.2,7.4-0.2,7.5c6.1-7.3,14.4-11,24.8-11
			c8.6,0,15.3,2.5,20.1,7.4c4.8,4.9,7.1,12.6,7.1,22.8v48.9h-18.4v-46.9c0-6.3-1-11-3-13.9c-2-3-5.4-4.4-10.3-4.4
			c-4.1,0-7.8,1-11,3.1c-3.2,2.1-5.6,4.8-7.2,8.1c-1.1,4.3-1.7,9.9-1.7,16.9v37.2L308.3,148.2L308.3,148.2z"/>
		<path class="st3" d="M432.1,149.7c-12.4,0-22.1-3.6-29-10.7c-6.9-7.1-10.4-17-10.4-29.6c0-12.3,3.3-22.1,9.8-29.3
			c6.5-7.3,15.4-10.9,26.6-11c10.6,0,18.9,3.3,24.8,10c5.9,6.7,8.8,15.5,8.8,26.5c0,0.8,0,2.1,0,3.9c0,1.8,0,3.1,0,3.9h-51.4
			c0.2,7.2,2.2,12.8,5.9,16.8c3.8,4,9,5.9,15.6,5.9c8.4,0,16.5-2.2,24.3-6.6l2.6,13.1C452,147.3,442.8,149.7,432.1,149.7
			L432.1,149.7z M411.6,101.8h33.8c0-6.3-1.4-11.1-4.3-14.5c-2.9-3.4-6.8-5.1-11.9-5.1c-4.7,0-8.7,1.6-12,4.9
			C413.9,90.4,412.1,95.3,411.6,101.8L411.6,101.8z"/>
		<path class="st3" d="M515.8,148.2V71h15.5l2.4,11.8c5.1-8.1,12.4-12.2,22-12.2c2,0,3.7,0.1,4.9,0.3l-0.3,15.4
			c-1.9-0.3-3.8-0.4-5.8-0.4c-6.8,0-11.9,1.8-15.2,5.4c-3.4,3.6-5,8.6-5,15v41.9L515.8,148.2L515.8,148.2z"/>
		<path class="st3" d="M604.3,149.7c-11.4,0-20.4-3.7-27-11.1c-6.6-7.4-9.8-17.2-9.8-29.2c0-12.5,3.3-22.3,9.8-29.5
			c6.6-7.2,15.8-10.8,27.8-10.8c11.5,0,20.6,3.7,27.1,11c6.5,7.3,9.8,17.1,9.8,29.3c0,12.3-3.3,22.1-9.9,29.4
			C625.5,146.1,616.2,149.7,604.3,149.7L604.3,149.7z M604.8,135.7c6.2,0,10.9-2.3,14.1-6.8c3.1-4.5,4.7-11.1,4.7-19.5
			c0-8.6-1.6-15.1-4.7-19.6c-3.1-4.5-7.9-6.8-14.2-6.8c-6.2,0-10.9,2.3-14.1,6.8c-3.2,4.5-4.7,11.1-4.7,19.7
			c0,8.4,1.6,14.9,4.8,19.5C593.8,133.4,598.6,135.7,604.8,135.7L604.8,135.7z"/>
		<path class="st3" d="M684.2,149.3c-5.3,0-9.7-0.6-13.2-1.9c-3.5-1.2-6.2-3.2-8.3-5.9c-2-2.7-3.4-6-4.2-9.7
			c-0.8-3.7-1.2-8.4-1.2-14V42.5l18.4-1.2v76.1c0,6.9,0.8,11.6,2.5,14.1c1.6,2.5,4.8,3.7,9.6,3.7c2.3,0,5.3-0.3,8.9-0.8l0.5,13.1
			c0,0-0.6,0.1-1.7,0.4c-1.1,0.2-2.2,0.4-3.2,0.6c-1,0.2-2.3,0.3-3.8,0.5C686.9,149.2,685.5,149.3,684.2,149.3L684.2,149.3z"/>
		<path class="st3" d="M733.4,149.3c-5.3,0-9.7-0.6-13.2-1.9c-3.5-1.2-6.2-3.2-8.3-5.9c-2-2.7-3.4-6-4.2-9.7
			c-0.8-3.7-1.2-8.4-1.2-14V42.5l18.4-1.2v76.1c0,6.9,0.8,11.6,2.5,14.1c1.6,2.5,4.8,3.7,9.6,3.7c2.3,0,5.3-0.3,8.9-0.8l0.5,13.1
			c0,0-0.6,0.1-1.7,0.4c-1.1,0.2-2.2,0.4-3.2,0.6c-1,0.2-2.3,0.3-3.8,0.5C736.1,149.2,734.7,149.3,733.4,149.3L733.4,149.3z"/>
		<path class="st3" d="M811.3,142.1c-6.1,5-14.2,7.6-24.3,7.6s-18.1-2.5-24.2-7.5c-6.1-5-9.2-12.4-9.2-22.1V71h18.5v48.4
			c0,5.8,1.2,9.9,3.6,12.5c2.4,2.6,6.2,3.9,11.5,3.9c5.2,0,8.9-1.3,11.3-3.8c2.4-2.6,3.6-6.7,3.6-12.6V71h18.4v49.1
			C820.5,129.8,817.4,137.1,811.3,142.1L811.3,142.1z"/>
		<path class="st3" d="M837.3,180.4V71h15.8l2,10.8c2.5-4.1,5.9-7.2,10.1-9.5c4.2-2.2,8.9-3.3,14-3.3c6.3,0,11.9,1.8,16.7,5.3
			c4.8,3.5,8.4,8.3,10.9,14.4c2.5,6.1,3.7,12.9,3.7,20.6c0,12-2.9,21.7-8.7,29.2c-5.8,7.5-13.6,11.3-23.5,11.3
			c-4.9,0-9.3-1-13.3-2.9c-4-1.9-7.3-4.6-9.9-7.9c0.4,6.8,0.6,10.5,0.6,11.4v29.2L837.3,180.4L837.3,180.4z M874.4,135.6
			c5.5,0,9.8-2.3,13-6.9c3.2-4.6,4.7-11.2,4.7-19.7c0-8.7-1.6-15.2-4.8-19.5c-3.2-4.4-7.6-6.5-13.3-6.5c-12.2,0-18.4,8.3-18.5,24.9
			c0,9.6,1.6,16.6,4.7,21.1C863.5,133.4,868.2,135.6,874.4,135.6L874.4,135.6z"/>
	</g>
</g>
</svg>
