<svg width="557" height="363" viewBox="0 0 557 363" fill="none" xmlns="http://www.w3.org/2000/svg">
<path d="M231.133 152.33V143.3C231.133 140.926 229.201 139 226.821 139H175.935C173.554 139 171.622 140.926 171.622 143.3V220.7C171.622 223.074 173.554 225 175.935 225H226.821C229.201 225 231.133 223.074 231.133 220.7V211.67C231.133 209.296 229.201 207.37 226.821 207.37H191.89C190.7 207.37 189.734 206.407 189.734 205.22V192.965C189.734 191.778 190.7 190.815 191.89 190.815H217.847C220.227 190.815 222.159 188.889 222.159 186.515V177.485C222.159 175.111 220.227 173.185 217.847 173.185H191.89C190.7 173.185 189.734 172.222 189.734 171.035V158.78C189.734 157.593 190.7 156.63 191.89 156.63H226.821C229.201 156.63 231.133 154.704 231.133 152.33Z" fill="#4C2897"/>
<path d="M274.278 177.485V186.515C274.278 188.889 276.21 190.815 278.59 190.815H288.487C289.677 190.815 290.643 191.778 290.643 192.965V201.423C290.643 201.995 290.415 202.541 290.014 202.945L286.637 206.742C286.232 207.146 285.684 207.37 285.111 207.37H273.127C272.553 207.37 272.005 207.142 271.6 206.742L267.986 203.139C267.581 202.735 267.357 202.188 267.357 201.617V161.523C267.357 160.952 267.585 160.405 267.986 160.001L270.738 157.258C271.143 156.854 271.691 156.63 272.264 156.63H285.542C286.115 156.63 286.663 156.858 287.068 157.258L295.163 165.329C296.849 167.01 299.579 167.01 301.26 165.329L307.449 159.158C309.135 157.477 309.135 154.755 307.449 153.078L294.589 140.26C293.778 139.456 292.683 139 291.54 139H266.533C265.403 139 264.321 139.439 263.514 140.23L250.538 152.919C249.71 153.727 249.245 154.833 249.245 155.989L249.253 207.736C249.253 208.875 249.706 209.967 250.517 210.776L263.51 223.736C264.321 224.544 265.416 224.996 266.559 224.996H291.536C292.683 224.996 293.787 224.54 294.593 223.727L307.505 210.776C308.307 209.972 308.76 208.879 308.76 207.744V177.481C308.76 175.107 306.828 173.181 304.447 173.181H278.595C276.214 173.181 274.282 175.107 274.282 177.481L274.278 177.485Z" fill="#4C2897"/>
<path d="M459.688 139H450.2C447.82 139 445.888 140.926 445.888 143.3V180.74C445.888 181.613 444.732 181.931 444.284 181.179L420.406 141.103C419.63 139.8 418.22 139 416.698 139H408.802C406.421 139 404.489 140.926 404.489 143.3V220.7C404.489 223.074 406.421 225 408.802 225H418.289C420.669 225 422.601 223.074 422.601 220.7V183.299C422.601 182.421 423.766 182.108 424.21 182.864L447.66 222.867C448.432 224.187 449.851 224.996 451.382 224.996H459.688C462.068 224.996 464 223.069 464 220.696V143.3C464 140.926 462.068 139 459.688 139Z" fill="#4C2897"/>
<path d="M132.259 139H98.3124C95.9319 139 94 140.926 94 143.3V220.7C94 223.074 95.9319 225 98.3124 225H132.259C134.545 225 136.74 224.093 138.357 222.48L150.983 209.89C152.601 208.277 153.51 206.089 153.51 203.81V160.19C153.51 157.911 152.601 155.723 150.983 154.11L138.357 141.52C136.74 139.907 134.545 139 132.259 139ZM128.037 207.37H114.268C113.078 207.37 112.112 206.407 112.112 205.22V158.78C112.112 157.593 113.078 156.63 114.268 156.63H128.037C128.611 156.63 129.159 156.858 129.564 157.258L134.769 162.448C135.174 162.852 135.399 163.398 135.399 163.97V200.03C135.399 200.602 135.17 201.148 134.769 201.552L129.564 206.742C129.159 207.146 128.611 207.37 128.037 207.37Z" fill="#4C2897"/>
<path d="M386.378 152.33V143.3C386.378 140.926 384.446 139 382.065 139H331.18C328.799 139 326.867 140.926 326.867 143.3V220.7C326.867 223.074 328.799 225 331.18 225H382.065C384.446 225 386.378 223.074 386.378 220.7V211.67C386.378 209.296 384.446 207.37 382.065 207.37H347.135C345.945 207.37 344.979 206.407 344.979 205.22V192.965C344.979 191.778 345.945 190.815 347.135 190.815H373.091C375.472 190.815 377.404 188.889 377.404 186.515V177.485C377.404 175.111 375.472 173.185 373.091 173.185H347.135C345.945 173.185 344.979 172.222 344.979 171.035V158.78C344.979 157.593 345.945 156.63 347.135 156.63H382.065C384.446 156.63 386.378 154.704 386.378 152.33Z" fill="#4C2897"/>
</svg>
